<svg width="188" height="80" viewBox="0 0 188 80" fill="none" xmlns="http://www.w3.org/2000/svg">
<g opacity="0.4">
<path d="M48.2937 46.2858C54.2549 46.2858 59.0874 41.5954 59.0874 35.8096C59.0874 35.1539 59.0253 34.5122 58.9066 33.8899C58.2653 33.7746 57.6042 33.7144 56.9286 33.7144C50.9675 33.7144 46.135 38.4047 46.135 44.1905C46.135 44.8463 46.1971 45.4879 46.3158 46.1103C46.957 46.2255 47.6181 46.2858 48.2937 46.2858Z" fill="#0A1F1A"/>
<path opacity="0.8" fill-rule="evenodd" clip-rule="evenodd" d="M46.3158 46.1104C41.2992 45.2087 37.5 40.9398 37.5 35.8097C37.5 30.0238 42.3325 25.3335 48.2937 25.3335C53.5792 25.3335 57.9775 29.0209 58.9065 33.89C58.2653 33.7747 57.6042 33.7144 56.9286 33.7144C50.9674 33.7144 46.1349 38.4048 46.1349 44.1906C46.1349 44.8464 46.197 45.488 46.3158 46.1104Z" fill="#0A1F1A"/>
<path opacity="0.6" fill-rule="evenodd" clip-rule="evenodd" d="M48.2937 46.2856C54.2548 46.2856 59.0873 41.5952 59.0873 35.8094C59.0873 35.1537 59.0253 34.512 58.9065 33.8896C63.9231 34.7914 67.7223 39.0602 67.7223 44.1903C67.7223 49.9762 62.8898 54.6665 56.9286 54.6665C51.643 54.6665 47.2448 50.9791 46.3158 46.1101C46.957 46.2253 47.6181 46.2856 48.2937 46.2856Z" fill="#0A1F1A"/>
<path d="M83.955 45.35C87.6435 45.35 90.3016 43.33 90.5695 40.33H87.4786C87.2313 41.77 85.8095 42.75 83.955 42.75C81.6265 42.75 79.8338 41.19 79.8338 38.19C79.8338 35.19 81.6265 33.61 83.955 33.61C85.7683 33.61 87.1901 34.59 87.3962 36.05H90.6313C90.2398 33.03 87.5816 31.03 83.955 31.03C80.1016 31.03 76.7222 33.47 76.7222 38.19C76.7222 42.91 80.0398 45.35 83.955 45.35Z" fill="#0A1F1A"/>
<path d="M96.3057 34.95C93.4621 34.95 91.7724 36.57 91.6488 38.59H94.2039C94.2451 37.75 94.8839 36.99 96.1409 36.99C97.3154 36.99 97.9954 37.57 97.9954 38.41C97.9954 38.83 97.7275 39.15 97.2124 39.15H95.4609C93.1942 39.15 91.6694 40.35 91.6694 42.33C91.6694 44.05 93.05 45.35 95.0694 45.35C96.4912 45.35 97.6451 44.73 97.9954 43.79V45.19H100.839V38.71C100.839 36.43 98.9227 34.95 96.3057 34.95ZM95.7906 43.33C94.9869 43.33 94.41 42.87 94.41 42.21C94.41 41.43 95.0282 40.91 95.8936 40.91H97.9954V41.05C97.9954 42.33 97.1918 43.33 95.7906 43.33Z" fill="#0A1F1A"/>
<path d="M102.764 49.27H105.628V44.29C106.185 44.97 107.194 45.35 108.369 45.35C111.357 45.35 113.376 43.29 113.376 40.15C113.376 37.01 111.522 34.95 108.616 34.95C107.277 34.95 106.246 35.43 105.628 36.21V35.11H102.764V49.27ZM108.019 42.95C106.473 42.95 105.463 41.83 105.463 40.15C105.463 38.45 106.473 37.33 108.019 37.33C109.523 37.33 110.553 38.45 110.553 40.15C110.553 41.83 109.523 42.95 108.019 42.95Z" fill="#0A1F1A"/>
<path d="M118.419 45.35C120.851 45.35 122.458 44.09 122.458 42.17C122.458 37.61 116.771 39.95 116.771 37.89C116.771 37.25 117.327 36.91 118.131 36.91C118.914 36.91 119.718 37.37 119.841 38.23H122.335C122.232 36.25 120.542 34.95 118.049 34.95C115.926 34.95 114.339 36.21 114.339 37.99C114.339 42.23 119.924 40.21 119.924 42.27C119.924 42.83 119.305 43.25 118.419 43.25C117.348 43.25 116.627 42.69 116.524 41.79H114.051C114.154 43.97 115.885 45.35 118.419 45.35Z" fill="#0A1F1A"/>
<path d="M133.771 35.11H130.886V40.63C130.886 41.91 130 42.87 128.743 42.87C127.569 42.87 126.744 41.99 126.744 40.77V35.11H123.88V41.39C123.88 43.69 125.405 45.35 127.734 45.35C129.155 45.35 130.309 44.75 130.886 43.79V45.19H133.771V35.11Z" fill="#0A1F1A"/>
<path d="M135.832 45.19H138.696V30.73H135.832V45.19Z" fill="#0A1F1A"/>
<path d="M147.698 41.77C147.471 42.63 146.708 43.07 145.555 43.07C144.112 43.07 143.185 42.19 142.979 40.77H150.438C150.459 40.55 150.479 40.25 150.479 39.87C150.479 37.57 149.016 34.95 145.348 34.95C141.825 34.95 140.218 37.57 140.218 40.13C140.218 42.67 142.031 45.35 145.555 45.35C148.11 45.35 150.088 43.95 150.5 41.77H147.698ZM145.348 36.99C146.729 36.99 147.533 37.89 147.615 39.01H143.02C143.267 37.61 144.05 36.99 145.348 36.99Z" fill="#0A1F1A"/>
</g>
</svg>
